<?xml version="1.0" standalone="no"?>
<!DOCTYPE svg PUBLIC "-//W3C//DTD SVG 1.1//EN" "http://www.w3.org/Graphics/SVG/1.1/DTD/svg11.dtd">
<svg xmlns="http://www.w3.org/2000/svg">
<metadata>Copyright (C) 2023 by original authors @ fontello.com</metadata>
<defs>
<font id="syzygy" horiz-adv-x="1000" >
<font-face font-family="syzygy" font-weight="400" font-stretch="normal" units-per-em="1000" ascent="850" descent="-150" />
<missing-glyph horiz-adv-x="1000" />
<glyph glyph-name="check" unicode="&#xe800;" d="M909 644c-18 19-46 19-65 0l-485-488-203 203c-18 19-47 19-65 0s-19-46 0-65l234-235c9-9 22-12 34-12 13 0 25 3 35 12l515 516c19 19 19 50 0 69z" horiz-adv-x="1000" />

<glyph glyph-name="arrow-right" unicode="&#xe801;" d="M913 372c-4 6-7 12-13 19l-375 375c-22 22-56 22-75 0-22-22-22-57 0-75l284-285h-621c-29 0-54-25-54-53s25-53 54-53h621l-284-284c-22-22-22-57 0-75 9-10 25-16 38-16s28 6 37 16l375 375c6 6 9 12 13 18 3 7 3 13 3 19 0 0 0 0 0 0 3 3 0 13-3 19z" horiz-adv-x="1000" />

<glyph glyph-name="link" unicode="&#xe802;" d="M675 278c-19 0-37-15-37-37v-110c0-18-4-37-13-56-6-19-19-34-31-47-28-28-66-44-103-44-38 0-75 16-103 44-29 28-44 66-44 103v110c0 18-16 37-38 37s-37-15-37-37v-110c0-59 22-112 62-153 41-41 97-62 153-62 60 0 113 21 154 62 21 22 37 44 46 72 13 28 16 56 16 84v110c9 15-6 34-25 34z m19 375c-13 28-28 50-47 72-22 22-44 38-72 47-53 22-112 22-169 0-28-13-50-28-72-47s-34-47-43-72c-13-28-19-56-19-84v-110c0-18 16-37 37-37s38 16 38 37v110c0 19 3 37 12 56 7 19 19 34 32 47 12 12 28 25 47 31 34 16 75 16 112 0 19-6 34-19 47-31 12-13 25-28 31-47 6-19 13-37 13-56v-110c0-18 15-37 37-37s38 16 38 37v110c-7 28-10 56-22 84z m-166-450v291c0 19-15 37-37 37-19 0-38-15-38-37v-291c0-19 16-37 38-37 22 3 37 18 37 37z" horiz-adv-x="1000" />

<glyph glyph-name="paperclip" unicode="&#xe803;" d="M906 409c-15 16-40 16-56 0l-362-362c-38-38-88-60-141-60s-103 22-141 60c-37 37-59 87-59 141 0 53 22 103 59 140l366 363c44 43 125 43 169 0 22-22 34-53 34-85 0-31-12-62-34-84l-366-363c-16-15-41-15-56 0-6 7-13 19-13 29 0 9 3 21 13 28l337 334c16 16 16 41 0 56-15 16-40 16-56 0l-337-337c-22-22-35-53-35-85 0-31 13-62 35-84 43-44 125-44 168 0l366 366c37 37 59 87 59 140 0 53-22 103-59 141-38 37-88 59-141 59-53 0-103-22-140-59l-366-366c-53-53-81-122-81-197s28-143 81-197c53-53 122-81 197-81s144 28 197 81l362 366c16 16 16 41 0 56z" horiz-adv-x="1000" />

<glyph glyph-name="file-text" unicode="&#xe804;" d="M850 522c-3 6-6 9-9 12l-238 238c-3 3-9 6-12 9-7 3-10 3-16 3h-312c-32 0-63-12-85-34-22-25-31-53-31-84v-632c0-31 12-62 34-84 22-22 53-34 85-34h472c31 0 62 12 84 34s34 53 34 84v472c-3 7-3 13-6 16z m-231 128l100-103h-103v103z m147-644c-7-6-19-12-28-12h-475c-10 0-22 3-29 12-6 7-12 19-12 28v632c0 9 3 22 12 28 7 6 19 12 29 12h275v-200c0-22 18-40 40-40h197v-435c0-6-3-15-9-25z m-110 188h-312c-22 0-41-19-41-41s19-40 41-40h312c22 0 41 18 41 40s-19 41-41 41z m0 156h-312c-22 0-41-19-41-41 0-21 19-40 41-40h312c22 0 41 19 41 40 0 22-19 41-41 41z m-312 78h78c22 0 41 19 41 41 0 22-19 40-41 40h-78c-22 0-41-18-41-40 0-22 19-41 41-41z" horiz-adv-x="1000" />

<glyph glyph-name="chevron-down" unicode="&#xe805;" d="M900 569c-25 25-62 25-84 0l-316-316-319 316c-25 25-62 25-84 0-25-25-25-63 0-85l359-359c13-12 28-19 44-19 16 0 31 7 44 19l359 359c22 25 22 63-3 85z" horiz-adv-x="1000" />

<glyph glyph-name="arrow-down" unicode="&#xe806;" d="M900 394c-22 22-53 22-75 0l-278-278v609c0 28-25 53-53 53s-50-25-50-53v-606l-278 278c-22 22-53 22-75 0-22-22-22-53 0-75l365-366c7-6 10-9 16-12 6-3 12-3 19-3 0 0 0 0 0 0 0 0 0 0 0 0 6 0 12 0 18 3 7 3 13 6 16 12l366 366c28 19 28 53 9 72z" horiz-adv-x="1000" />

<glyph glyph-name="arrow-up-right" unicode="&#xe807;" d="M897 713c-3 9-9 15-16 21-6 7-15 13-22 16-9 3-15 6-25 6 0 0 0 0 0 0h-684c-37 0-69-31-69-68s32-69 69-69h519l-566-569c-28-28-28-69 0-97s69-28 97 0l566 566v-519c0-38 31-69 68-69s69 31 69 69v684c0 0 0 0 0 0 0 10-3 19-6 29z" horiz-adv-x="1000" />

<glyph glyph-name="search" unicode="&#xe808;" d="M872-72c-9 0-22 3-31 13l-228 228c-57-44-129-72-207-72-184 0-337 150-337 337s153 338 340 338 338-150 338-338c0-78-25-150-72-206l228-228c16-16 16-44 0-59-9-10-19-13-31-13z m-463 760c-140 0-253-113-253-254s113-253 253-253 254 113 254 253-116 254-254 254z" horiz-adv-x="1000" />

<glyph glyph-name="list" unicode="&#xe809;" d="M884 119h-546c-22 0-41-19-41-41s19-40 41-40h546c22 0 41 18 41 40s-16 41-41 41z m-756 0l0 0c-25 0-44-19-44-41s19-40 44-40 41 18 41 40-19 41-41 41z m756 253h-546c-22 0-41-19-41-41s16-43 41-43h546c22 0 41 18 41 40s-16 44-41 44z m-756 0l0 0c-25 0-44-19-44-41s19-43 44-43 41 18 41 40-19 44-41 44z m210 169h546c22 0 41 18 41 40s-19 41-41 41h-546c-22 0-41-19-41-41s16-40 41-40z m-210 84l0 0c-25 0-44-19-44-41s19-40 44-40 41 19 41 40-19 41-41 41z" horiz-adv-x="1000" />

<glyph glyph-name="menu" unicode="&#xe80a;" d="M134 538h729c21 0 40 18 40 40s-19 41-40 41h-729c-21 0-40-19-40-41s19-40 40-40z m732-163h-732c-21 0-40-19-40-41 0-21 19-40 40-40h729c21 0 40 19 40 40 3 22-15 41-37 41z m0-244h-732c-21 0-40-18-40-40 0-22 19-41 40-41h729c21 0 40 19 40 41 3 22-15 40-37 40z" horiz-adv-x="1000" />

<glyph glyph-name="minus-circle" unicode="&#xe80b;" d="M653 391h-315c-22 0-41-19-41-41s19-41 41-41h315c22 0 41 19 41 41s-19 41-41 41z m-159 393c-238 0-431-193-431-434s193-434 434-434 431 193 431 434-194 434-434 434z m0-790c-194 0-353 159-353 356 0 197 159 356 356 356 197 0 356-159 356-356-3-197-162-356-359-356z" horiz-adv-x="1000" />

<glyph glyph-name="clock" unicode="&#xe80c;" d="M488 772c-235 0-429-194-429-428s191-428 429-428 428 190 428 428-191 428-428 428z m0-778c-194 0-350 156-350 350 0 194 159 350 350 350 193 0 350-156 350-350 0-194-157-350-350-350z m175 306l-135 66v212c0 22-19 38-37 38s-38-19-38-38v-234c0-16 10-28 22-35l156-78c7-3 13-3 19-3 16 0 28 10 34 22 4 19-3 41-21 50z" horiz-adv-x="1000" />

<glyph glyph-name="calendar" unicode="&#xe80d;" d="M872 616c-16 28-38 53-69 68-28 16-59 16-109 16v38c0 21-19 37-38 37s-37-19-37-37v-38h-235v38c0 21-18 37-37 37-22 0-38-19-38-37v-38c-50 0-81-3-109-16-34-15-56-40-72-68-15-35-15-69-15-141v-325c0-72 0-106 15-141 16-28 38-53 69-68 34-16 69-16 141-16h325c71 0 106 0 140 16 28 15 53 37 69 68 16 35 16 69 16 141v325c0 72 0 106-16 141z m-59-469c0-56 0-88-10-106-6-16-19-25-34-35-16-9-47-9-106-9h-325c-57 0-88 0-107 9-15 7-25 19-34 35-9 18-9 50-9 106v241h625v-241z m0 319h-625v9c0 56 0 88 9 106 6 16 19 25 34 35 13 6 38 9 75 9v-37c0-22 19-38 38-38 22 0 37 19 37 38v34h235v-38c0-21 18-37 37-37s38 19 38 37v38c37 0 59-3 75-9 15-7 25-19 34-35 13-15 13-47 13-103v-9z" horiz-adv-x="1000" />

<glyph glyph-name="settings" unicode="&#xe80e;" d="M913 409c-16 16-35 22-57 22h-6c-12 0-25 3-37 10-10 6-19 15-25 28v6c-7 13-7 25-4 38 4 12 10 25 19 34l3 3c7 6 13 16 19 25 3 9 6 19 6 31 0 10-3 22-6 32-3 9-9 18-19 25-6 6-15 12-25 18-9 3-18 7-31 7-9 0-22-4-31-7s-22-12-28-18l-3-4c-10-9-22-15-35-18-12-3-25 0-37 3-13 6-22 12-28 25-7 9-10 22-10 37v3c0 22-9 41-22 57-15 15-34 22-56 22-22 0-41-10-56-22-16-16-22-35-22-57v-6c0-12-3-25-9-37s-16-19-29-25h-9c-12-7-25-7-37-3-13 3-25 9-35 18l-3 3c-9 7-19 13-28 19-9 3-19 6-31 6-10 0-22-3-32-6-6-6-15-12-21-19-10-6-16-15-19-25s-6-18-6-31c0-9 3-22 6-31s9-19 19-25l0-3c9-10 15-22 18-35 3-12 0-25-3-37-3-13-12-22-25-31s-22-13-37-13h-3c-22 0-41-9-57-22-15-15-22-34-22-56 0-22 10-41 22-56 16-16 35-22 57-22h6c12 0 25-3 37-9 10-7 19-16 25-29 7-12 7-25 3-37-3-13-9-25-18-34l-3-4c-7-6-13-15-19-25-3-9-6-18-6-31s3-22 6-31c3-9 9-19 19-25 6-6 15-13 25-19 9-3 18-6 31-6 9 0 22 3 31 6 9 3 19 10 25 19l3 3c10 9 22 16 35 19 12 3 25 0 37-3 13-3 22-13 31-25 7-10 13-25 13-38v-3c0-22 9-41 22-56 15-16 34-22 56-22s41 9 56 22c16 15 22 34 22 56v6c0 13 3 25 9 38 7 9 16 19 29 25 12 6 25 6 37 3s25-9 34-19l4-3c6-6 15-12 25-19 9-3 18-6 31-6s22 3 31 6c9 3 19 10 25 19 6 6 13 16 19 25 3 9 6 19 6 31 0 10-3 22-6 32-3 9-10 18-19 25l-3 3c-9 9-16 22-19 34-3 13 0 25 3 38 7 12 13 21 25 28 10 6 22 9 38 9h3c22 0 41 9 56 22 16 16 22 34 22 56s0 41-12 56z m-416-215c-88 0-159 72-159 159 0 88 71 160 159 160 87 0 159-72 159-160 0-87-72-159-159-159z" horiz-adv-x="1000" />

<glyph glyph-name="chevron-up" unicode="&#xe80f;" d="M916 209l-372 369c-25 25-63 25-88 0l-372-369c-25-25-25-62 0-87s63-25 88 0l328 325 328-328c13-13 28-19 44-19 16 0 31 6 44 19 22 25 22 65 0 90z" horiz-adv-x="1000" />

<glyph glyph-name="vertical-six-dots" unicode="&#xe810;" d="M447 28c0-50-41-91-91-91s-90 41-90 91 40 91 90 91 91-41 91-91z m-91 413c-50 0-90-41-90-91s40-91 90-91 91 41 91 91-41 91-91 91z m0 137c50 0 91 41 91 91s-41 90-91 90-90-40-90-90 40-91 90-91z m357-547c0-50-41-90-91-90s-91 40-91 90 41 91 91 91c50 0 91-41 91-91z m-91 413c-50 0-91-41-91-91s41-90 91-90c50 0 91 40 91 90s-41 91-91 91z m0 137c50 0 91 41 91 91s-41 91-91 91-91-41-91-91 41-91 91-91z" horiz-adv-x="1000" />

<glyph glyph-name="arrow-up" unicode="&#xe811;" d="M88 325c21-22 53-22 75 0l278 278v-609c0-28 25-53 53-53s50 25 50 53v606l278-278c22-22 53-22 75 0 22 22 22 53 0 75l-366 366c-6 6-9 9-15 12-7 3-13 3-19 3l0 0 0 0c-6 0-13 0-19-3s-12-6-15-12l-366-366c-28-19-28-53-9-72z" horiz-adv-x="1000" />

<glyph glyph-name="plus" unicode="&#xe812;" d="M866 388h-313v312c0 28-22 53-53 53-28 0-53-22-53-53v-312h-313c-28 0-53-22-53-54 0-28 22-53 53-53h313v-312c0-28 22-53 53-53 28 0 53 21 53 53v312h313c28 0 53 22 53 53 0 29-25 54-53 54z" horiz-adv-x="1000" />

<glyph glyph-name="x" unicode="&#xe814;" d="M581 350l310 309c22 22 22 60 0 82-22 22-60 22-82 0l-309-310-309 313c-22 22-60 22-82 0s-21-60 0-81l310-310-310-309c-21-22-21-60 0-82 13-12 25-15 41-15s31 6 41 15l309 310 309-310c13-12 25-15 41-15s31 6 41 15c22 22 22 60 0 82l-310 306z" horiz-adv-x="1000" />

<glyph glyph-name="alert" unicode="&#xe815;" d="M922 159l-306 507c-13 18-28 34-50 47-19 12-44 15-66 15-22 0-47-6-66-15-18-13-37-29-50-47l-306-507c-9-18-15-40-15-59s6-41 15-59c13-22 28-38 50-50 22-13 44-19 69-19h612c25 0 47 6 69 19 22 12 38 28 50 50 10 18 16 40 16 59-6 19-13 41-22 59z m-394-18c-6-7-19-10-28-10-9 0-16 3-22 7-6 3-12 9-15 18-4 7-4 16-4 22 0 6 7 16 10 22 6 6 12 9 22 9 6 0 15 0 22-3 6-3 12-9 18-15 3-7 7-16 7-22 3-10-4-19-10-28z m13 150c0-10-3-22-13-28-6-7-19-13-28-13-9 0-22 3-28 13-6 6-13 18-13 28v159c0 9 4 22 13 28 6 6 19 13 28 13 9 0 22-3 28-13 6-6 13-19 13-28v-159z" horiz-adv-x="1000" />

<glyph glyph-name="rotate-ccw" unicode="&#xe816;" d="M900 503c-34 78-97 144-172 185-75 40-162 56-247 46-84-12-165-53-225-112l-118-109v146c0 22-19 41-41 41s-38-19-38-41v-237c0-3 0-3 0-6 4-3 4-7 4-10 0-3 3-6 6-6 0-3 3-3 3-6 0 0 0 0 0 0 3-3 6-3 9-6 0 0 3-4 3-4 4 0 4 0 7 0 3-3 6-3 9-3 0 0 0 0 0 0h238c21 0 40 19 40 41 0 22-19 41-40 41h-138l113 103c50 47 112 81 181 90 69 10 137-3 197-37 59-35 109-85 137-147 28-63 35-134 19-200-16-66-53-128-106-172-53-44-119-72-188-75-69-3-137 16-194 53-56 38-100 94-125 160-6 21-31 31-50 25-21-7-31-32-25-50 29-82 85-150 157-200 65-44 143-66 222-66 6 0 15 0 21 0 85 6 169 37 235 94 65 56 112 131 131 215 19 82 9 169-25 247z" horiz-adv-x="1000" />

<glyph glyph-name="alert-triangle" unicode="&#xe817;" d="M916 147l-316 525c-9 16-25 31-41 41-34 18-75 18-109 0-16-10-31-22-41-41 0 0 0 0 0 0l-315-525c-10-16-16-38-16-56 0-19 6-38 16-57 9-15 25-31 40-40 16-10 35-16 57-16h628c19 0 37 6 56 16 16 9 31 25 41 40 9 16 15 38 15 57-3 22-6 40-15 56z m-66-72c-3-6-9-9-12-12-7-4-13-7-19-7h-628c-7 0-13 3-19 7-6 3-9 9-13 12-3 6-6 13-6 19 0 6 3 12 3 19l316 521c3 7 9 10 12 13 13 6 25 6 38 0 6-3 9-6 12-13l313-525c3-6 6-12 6-18s0-13-3-16z m-347 203c22 0 38 16 38 38v147c0 21-16 37-38 37-22 0-37-16-37-37v-147c3-22 18-38 37-38z m3-75l0 0c-22 0-37-15-37-37 0-22 15-38 37-38 22 0 38 16 38 38-3 22-19 37-38 37z" horiz-adv-x="1000" />

<glyph glyph-name="success" unicode="&#xe818;" d="M913 528c-25 53-57 103-97 144-41 41-88 72-144 97-53 22-109 34-172 34s-119-12-175-34c-53-25-103-56-144-97s-72-88-97-144c-21-53-34-112-34-172s13-118 34-175c25-53 57-103 97-143 41-41 88-72 144-97 53-25 113-35 175-35s119 13 175 35c53 25 103 56 144 97 40 40 72 87 97 143 25 53 34 113 34 175s-12 119-37 172z m-191-94l-253-253c-10-9-19-12-31-12-13 0-22 3-32 12l-128 128c-9 10-12 19-12 32 0 12 3 22 12 31 10 9 19 12 31 12 13 0 22-3 32-12l97-97 221 222c10 9 19 12 32 12 12 0 22-3 31-12 9-9 12-19 12-31s-3-22-12-32z" horiz-adv-x="1000" />

<glyph glyph-name="chevron-right" unicode="&#xe819;" d="M734 384l-371 372c-25 25-63 25-88 0s-25-62 0-87l328-328-328-328c-25-26-25-63 0-88 13-13 28-19 44-19 15 0 31 6 44 19l371 372c25 25 25 66 0 87z" horiz-adv-x="1000" />

<glyph glyph-name="chevron-left" unicode="&#xe81a;" d="M369 359l306 307c22 22 22 59 0 81-22 22-59 22-81 0l-350-347c-22-22-22-59 0-81l350-350c12-13 25-16 40-16 16 0 32 6 41 16 22 22 22 59 0 81l-306 309z" horiz-adv-x="1000" />

<glyph glyph-name="user" unicode="&#xe81b;" d="M809 191c-40 40-90 62-146 62h-335c-56 0-109-22-147-62-40-41-62-91-62-147v-85c0-22 19-40 40-40s41 18 41 40v85c0 34 13 65 38 87 25 25 56 38 87 38h334c35 0 66-13 88-38 22-22 37-56 37-87v-85c0-22 19-40 41-40s41 18 41 40v85c6 56-16 109-57 147z m-315 147c115 0 209 93 209 209s-94 209-209 209-210-93-210-209 97-209 210-209z m0 334c69 0 125-56 125-125s-56-125-125-125-125 56-125 125 56 125 125 125z" horiz-adv-x="1000" />

<glyph glyph-name="x-circle" unicode="&#xe81c;" d="M503 797c-247 0-447-200-447-444s200-447 447-447 447 200 447 447-203 444-447 444z m0-810c-200 0-365 163-365 366 0 200 162 366 365 366 200 0 366-163 366-366-3-200-166-366-366-366z m150 516c-15 16-40 16-56 0l-94-94-94 94c-15 16-40 16-56 0s-15-40 0-56l94-94-94-94c-15-15-15-40 0-56 10-9 19-12 28-12s22 3 28 12l94 94 94-94c9-9 19-12 28-12 9 0 22 3 28 12 16 16 16 41 0 56l-94 94 94 94c16 16 16 41 0 56z" horiz-adv-x="1000" />

<glyph glyph-name="sort-amount-down" unicode="&#xe81d;" d="M453 516h431c13 0 22 3 32 12 9 10 12 19 12 31s-3 22-12 32c-10 6-19 9-32 9h-431c-12 0-22-3-31-12-9-10-13-19-13-32s4-22 13-31c9-6 22-9 31-9z m-140-272c-4 3-10 6-13 9-6 3-12 3-19 3-6 0-12 0-15-3-7-3-10-6-13-9l-12-13v325c0 13-3 22-13 32-9 9-19 12-31 12-13 0-22-3-31-12-7-7-13-19-13-32v-325l-12 13c-10 9-19 12-32 12s-21-3-31-12c-9-10-12-19-12-31s3-22 12-32l88-87c3-3 9-6 15-10 7-3 10-3 16-3 6 0 12 0 16 3 6 4 9 7 15 10l88 87c3 3 6 10 9 13 3 6 3 9 3 15 0 7 0 13-3 16-6 9-9 16-12 19z m571-72h-431c-12 0-22-3-31-13-9-9-13-18-13-31 0-12 4-22 13-31 9-9 19-13 31-13h431c13 0 22 4 32 13 9 9 12 19 12 31 0 13-3 22-12 31-10 7-19 13-32 13z m0 212h-431c-12 0-22-3-31-12-9-9-13-19-13-31 0-13 4-22 13-32 9-9 19-12 31-12h431c13 0 22 3 32 12 9 10 12 19 12 32 0 12-3 22-12 31-10 9-19 12-32 12z" horiz-adv-x="1000" />

<glyph glyph-name="edit" unicode="&#xe81e;" d="M797 350c-22 0-38-16-38-37v-263c0-9-3-19-12-25-6-6-16-12-25-12h-525c-9 0-19 3-25 12-6 6-13 16-13 25v522c0 9 4 19 13 25 6 9 16 12 25 12h262c22 0 38 16 38 38s-16 37-38 37h-262c-31 0-59-12-78-34-22-19-35-47-35-78v-525c0-31 13-60 35-78 22-22 50-35 78-35h525c31 0 59 13 78 35s34 50 34 78v262c0 22-15 41-37 41z m84 381c-43 44-122 44-165 0l-357-356c-6-6-9-9-9-19l-37-150c-4-12 0-25 9-34 6-6 16-13 25-13 3 0 6 0 9 0l150 38c7 3 13 6 19 9l356 360c22 22 35 50 35 81s-13 62-35 84z m-53-112l-350-350-78-19 19 78 350 350c0 0 0 0 0 0 15 16 44 16 59 0 10-9 13-19 13-31 0-9-7-22-13-28z" horiz-adv-x="1000" />

<glyph glyph-name="upload-cloud" unicode="&#xe81f;" d="M913 334c-13 47-38 88-75 116-38 28-85 47-132 47h-9c-13 34-31 62-53 91-31 37-69 65-113 84-43 19-90 28-140 28-50-3-100-16-141-37-41-22-78-54-106-94-28-38-47-85-56-131-10-47-7-97 6-141 12-47 37-88 69-125 15-19 46-22 65-3 19 15 22 47 3 65-22 25-37 57-47 88-9 31-9 66-3 100s19 66 41 91 47 50 75 65c28 16 62 25 97 25 34 0 69-6 97-19 31-12 59-34 81-59 22-25 37-56 47-87 6-22 25-35 47-35h43c29 0 54-9 75-25 22-15 38-40 44-65 6-25 3-54-6-79s-31-46-53-59c-22-12-31-41-19-62 9-16 25-25 41-25 6 0 15 3 22 6 40 22 75 59 93 103 13 44 16 94 7 137z m-379 50c-3 0-3 0 0 0-3 4-6 4-6 7 0 0 0 0-3 0-3 0-3 3-6 3 0 0-3 0-3 0-3 0-3 0-7 3-3 0-6 0-9 0s-6 0-9 0c-3 0-3 0-7-3 0 0-3 0-3 0-3 0-3-3-6-3 0 0 0 0 0 0-3-3-6-3-6-7l-135-134c-18-19-18-47 0-66s47-18 66 0l56 57v-191c0-25 22-47 47-47s47 22 47 47v191l56-57c10-9 22-12 35-12s25 3 34 12c19 19 19 47 0 66l-141 134z" horiz-adv-x="1000" />

<glyph glyph-name="trash" unicode="&#xe820;" d="M838 622h-79-78v37c0 32-12 63-34 85s-53 34-84 34h-157c-31 0-62-12-84-34-19-22-31-53-31-85v-40h-78-79c-21 3-40-16-40-38s19-40 40-40h41v-510c0-31 13-62 34-84s54-35 85-35h390c32 0 63 13 85 35s34 53 34 84v513h41c22 0 40 19 40 40-6 19-25 38-46 38z m-469 37c0 10 3 22 12 29 7 6 19 12 28 12h157c9 0 22-3 28-12 6-7 12-19 12-29v-40h-234l-3 40 0 0z m353-625c0-9-3-21-13-28s-18-12-28-12h-390c-10 0-22 3-28 12-7 7-13 16-13 28v510h472v-510z m-156 79c22 0 40 18 40 40v235c0 21-18 40-40 40-22 0-41-19-41-40v-235c0-25 19-40 41-40z m-160 0c22 0 41 18 41 40v235c0 21-19 40-41 40s-40-19-40-40v-235c3-25 18-40 40-40z" horiz-adv-x="1000" />

<glyph glyph-name="plus-circle" unicode="&#xe821;" d="M653 391h-119v115c0 22-18 41-40 41-22 0-41-19-41-41v-118h-119c-21 0-40-19-40-41 0-22 19-41 40-41h119v-112c0-22 19-41 41-41 22 0 40 19 40 41v119h119c22 0 41 18 41 40 0 19-19 38-41 38z m-159 393c-238 0-431-193-431-434s193-434 434-434 431 193 431 434-194 434-434 434z m0-790c-194 0-353 159-353 356 0 197 159 356 356 356 197 0 356-159 356-356-3-197-162-356-359-356z" horiz-adv-x="1000" />

<glyph glyph-name="arrow-left" unicode="&#xe822;" d="M884 394h-634l291 290c22 22 22 57 0 79-22 21-57 21-78 0l-382-385c-6-6-9-12-12-19-3-6-3-12-3-21 0 0 0 0 0 0 0-7 0-16 3-22 3-7 6-13 12-19l382-381c9-10 25-16 37-16 13 0 28 6 38 16 21 21 21 56 0 78l-288 290h634c32 0 54 25 54 54 3 34-22 56-54 56z" horiz-adv-x="1000" />

<glyph glyph-name="download" unicode="&#xe823;" d="M878 263c-22 0-40-19-40-41v-169c0-12-4-22-13-28-9-9-19-12-28-12h-591c-12 0-22 3-28 12-6 9-12 19-12 28v169c0 22-19 41-41 41s-41-19-41-41v-169c0-34 13-66 38-87 25-25 56-38 87-38h588c34 0 66 13 87 38 25 25 38 56 38 87v169c-3 22-22 41-44 41z m-406-72c3-3 9-7 12-10 7-3 10-3 16-3s9 0 16 3c6 3 9 7 12 10l210 209c15 16 15 44 0 59-16 16-44 16-60 0l-137-137v400c0 22-19 41-41 41-22 0-41-19-41-41v-403l-137 137c-16 16-44 16-59 0-16-15-16-43 0-59l209-206z m406 75c-22 0-40-19-40-41v-169c0-12-4-22-13-28s-19-12-28-12h-591c-12 0-22 3-28 12-6 10-12 19-12 28v169c0 22-19 41-41 41s-44-19-44-41v-169c0-34 13-65 38-87 25-25 56-38 87-38h588c34 0 65 13 87 38s38 56 38 87v169c0 22-19 41-41 41z m-406-72c3-3 9-6 12-10 7-3 10-3 16-3s9 0 16 3c6 4 9 7 12 10l210 209c15 16 15 44 0 60s-44 15-60 0l-137-138v403c0 22-19 41-41 41-22 0-41-19-41-41v-403l-137 138c-16 15-44 15-59 0s-16-44 0-60l209-209z" horiz-adv-x="1000" />

<glyph glyph-name="info" unicode="&#xe824;" d="M500 794c-241 0-437-194-437-435s196-437 437-437 438 197 438 437-197 435-438 435z m0-794c-197 0-356 159-356 356-3 200 159 360 356 360 197 0 356-160 356-357 0-200-159-359-356-359z m0 397c-22 0-41-19-41-41v-159c0-22 19-41 41-41 22 0 41 19 41 41v159c-3 25-19 41-41 41z m0 159l0 0c-22 0-41-18-41-40s19-41 41-41c22 0 41 19 41 41s-19 40-41 40z" horiz-adv-x="1000" />

<glyph glyph-name="check-circle" unicode="&#xe825;" d="M897 425c-22 0-41-19-41-41v-34c0-75-25-153-72-212-46-63-112-107-184-129-72-22-153-18-225 7-72 25-134 75-175 140-41 66-62 141-56 219 6 75 34 150 84 209 50 60 119 100 194 116 75 16 153 9 225-22 19-9 44 0 53 19 9 19 0 44-19 53-87 38-187 47-278 25-90-19-175-72-234-141-60-71-97-162-103-256-7-94 18-187 68-265 50-79 129-141 216-172 50-19 100-29 150-29 41 0 84 7 125 19 91 25 169 82 225 157 56 75 88 168 88 262v38c0 21-19 37-41 37z m-488-9c-15 15-40 15-56 0-15-16-15-41 0-57l119-118c6-7 19-13 28-13 9 0 22 3 28 13l397 400c16 15 16 40 0 56-16 16-41 16-56 0l-369-372-91 91z" horiz-adv-x="1000" />

<glyph glyph-name="more-vertical" unicode="&#xe826;" d="M578 19c0-50-40-91-90-91s-91 41-91 91 41 90 91 90 90-40 90-90z m-90 412c-50 0-91-40-91-90s41-91 91-91 90 41 90 91-40 90-90 90z m0 138c50 0 90 40 90 90s-40 91-90 91-91-41-91-91 41-90 91-90z" horiz-adv-x="1000" />

<glyph glyph-name="more-horizontal" unicode="&#xe827;" d="M909 350c0-50-40-91-90-91s-91 41-91 91 41 91 91 91 90-41 90-91z m-409 91c-50 0-91-41-91-91s41-91 91-91 91 41 91 91-41 91-91 91z m-319 0c-50 0-90-41-90-91s40-91 90-91 91 41 91 91-41 91-91 91z" horiz-adv-x="1000" />

<glyph glyph-name="filter" unicode="&#xe828;" d="M928 725l-344-406v-366l-168 88v278l-344 406h856z" horiz-adv-x="1000" />

<glyph glyph-name="not-found" unicode="&#xe829;" d="M634 309c-3 7-6 10-9 13-3 3-9 6-16 6-6 0-9 3-15 0-6 0-10-3-16-6l-65-34-38 65c-6 10-16 16-25 19-9 3-22 0-31-3-10-6-16-16-19-25-3-10 0-22 3-31l38-66-66-41c-6-3-9-6-12-9-4-3-7-9-7-16s-3-9 0-15c0-7 3-10 7-16 3-6 6-9 9-12 3-4 9-7 16-7 6 0 9-3 15 0 6 0 10 3 16 7l65 37 38-66c3-6 6-9 9-12 3-3 10-6 16-6 6 0 9-3 16 0 6 0 9 3 15 6 6 3 10 6 13 9 3 3 6 10 6 16 0 6 3 9 0 16 0 6-3 9-6 15l-38 66 66 37c6 3 9 7 12 10 3 3 7 9 7 15 0 7 3 10 0 16 0 3 0 6-4 12z m250 75c0 4 0 7 0 13l0 3c0 3-3 9-3 13l-175 306c-3 3-6 6-9 9l-3 0c-3 3-6 6-13 6l-243 72c-32 10-66 3-94-12-31-16-50-44-60-75l-153-563c-9-31-3-65 13-93 15-29 44-50 75-60l400-109c31-10 65-3 94 12 28 16 50 44 59 75l112 403c-3 0-3 0 0 0z m-203 210l75-131-62 18c-10 3-19 10-25 19-6 9-6 22-3 31l15 63z m13-591c-3-9-10-19-19-25-9-6-22-6-31-3l-403 109c-10 4-19 10-25 19-7 10-7 22-3 31l153 563c3 9 9 19 18 25 10 6 22 6 32 3l200-53-32-119c-9-31-3-65 13-94 16-28 44-50 75-59l119-31-97-366z" horiz-adv-x="1000" />

<glyph glyph-name="log-out" unicode="&#xe82a;" d="M359-103h-187c-34 0-66 12-88 37-25 25-37 57-37 88v656c0 35 12 66 37 88 25 25 57 37 88 37h187c19 0 32-12 32-31s-13-31-32-31h-187c-16 0-31-7-44-19-12-13-19-28-19-44v-656c0-16 7-31 19-44 13-12 28-19 44-19h187c19 0 32-12 32-31s-13-31-32-31z m329 187c-10 0-16 4-22 10-13 12-13 31 0 44l181 181h-488c-18 0-31 12-31 31s13 31 31 31h488l-181 182c-13 12-13 31 0 43 12 13 31 13 43 0l235-234c0 0 0 0 0 0l0 0c0 0 0 0 0 0 0 0 0 0 0 0 6-6 9-13 9-22l0 0c0 0 0 0 0 0l0 0 0 0c0 0 0 0 0 0l0 0c0-9-3-16-9-22 0 0 0 0 0 0 0 0 0 0 0 0l0 0c0 0 0 0 0 0l-235-234c-6-6-12-10-21-10z" horiz-adv-x="1000" />
</font>
</defs>
</svg>
